<svg width="67" height="27" viewBox="0 0 67 27" fill="none" xmlns="http://www.w3.org/2000/svg">
<g clip-path="url(#clip0_1_115)">
<path d="M7.22284 7.87863L7.22142 7.87865L2.58422 9.85535C0.10095 12.3386 -0.042767 16.2885 2.15272 18.9417L-0.088387 21.1827L-0.176778 21.2711L-0.0883884 21.3595L0.640486 22.0884L0.728874 22.1768L0.817263 22.0884L3.0582 19.8475C4.26736 20.8501 5.77425 21.3959 7.36444 21.3959C9.1698 21.3959 10.868 20.6925 12.1446 19.4158C13.3787 18.1819 14.0807 16.5397 14.1211 14.7928L14.1212 14.7928L14.1212 14.7899L14.125 8.00007L14.1251 7.87493L13.9999 7.875L7.22284 7.87863ZM10.0829 14.4352H8.47047L10.0498 12.8559L10.1382 12.7675L10.0498 12.6791L9.32093 11.9502L9.23254 11.8618L9.14416 11.9502L7.56482 13.5296V11.9171V11.7921H7.43982H6.40903H6.28403V11.9171V14.8104L5.37817 15.7162V11.9171V11.7921H5.25317H4.22237H4.09737V11.9171V16.997L3.06365 18.0307C1.36476 15.882 1.50671 12.7441 3.48984 10.761C4.48871 9.76216 5.81675 9.19362 7.2309 9.15944L12.8436 9.15641L12.8405 14.7701C12.806 16.184 12.2375 17.5117 11.239 18.5102C10.2039 19.5453 8.82831 20.1151 7.36444 20.1151C6.11611 20.1151 4.93226 19.7004 3.96888 18.9367L5.00295 17.9027H10.0829H10.2079V17.7777V16.7469V16.6219H10.0829H6.28382L7.18968 15.716H10.0829H10.2079V15.591V14.5602V14.4352H10.0829Z" fill="#38F2AF" stroke="#38F2AF" stroke-width="0.25"/>
</g>
<path d="M19.314 7.42H22.068L24.138 17.518L26.28 7.42H28.962L29.232 22H27.252L27.036 11.866L24.966 22H23.364L21.258 11.83L21.06 22H19.062L19.314 7.42ZM31.2951 7.906H33.7431V9.94H31.2951V7.906ZM31.2951 11.596H33.7431V22H31.2951V11.596ZM35.688 11.596H38.136V12.622C38.964 11.83 39.804 11.434 40.656 11.434C41.244 11.434 41.682 11.65 41.97 12.082C42.27 12.514 42.42 13.06 42.42 13.72V22H39.972V14.206C39.972 13.87 39.918 13.624 39.81 13.468C39.714 13.312 39.534 13.234 39.27 13.234C38.982 13.234 38.604 13.402 38.136 13.738V22H35.688V11.596ZM47.2193 22.126C46.2713 22.126 45.5993 21.898 45.2033 21.442C44.8193 20.986 44.6273 20.308 44.6273 19.408V13.198H43.5833V11.596H44.6273V8.482H47.0933V11.596H48.6593V13.198H47.0933V19.192C47.0933 19.54 47.1653 19.792 47.3093 19.948C47.4653 20.104 47.7053 20.182 48.0293 20.182C48.3293 20.182 48.5813 20.158 48.7853 20.11V22C48.3053 22.084 47.7833 22.126 47.2193 22.126ZM50.2619 7.906H52.7099V9.94H50.2619V7.906ZM50.2619 11.596H52.7099V22H50.2619V11.596ZM55.1588 13.306H54.0428V11.596H55.1588V10.93C55.1588 10.222 55.2188 9.652 55.3388 9.22C55.4588 8.788 55.7048 8.452 56.0768 8.212C56.4488 7.972 56.9948 7.852 57.7148 7.852C58.1108 7.852 58.5548 7.888 59.0468 7.96V9.76C58.7228 9.7 58.5008 9.67 58.3808 9.67C58.0928 9.67 57.8888 9.76 57.7688 9.94C57.6488 10.12 57.5888 10.39 57.5888 10.75V11.596H59.0468V13.306H57.5888V22H55.1588V13.306ZM60.1935 23.062C60.8415 23.062 61.2975 23.002 61.5615 22.882C61.8375 22.774 61.9755 22.558 61.9755 22.234C61.9755 22.018 61.8495 21.406 61.5975 20.398L59.3115 11.596H61.6875L63.0375 18.472L64.2075 11.596H66.5655L64.1355 22.414C63.9315 23.29 63.5415 23.908 62.9655 24.268C62.4015 24.64 61.6335 24.826 60.6615 24.826H60.1935V23.062Z" fill="#38F2AF"/>
<defs>
<clipPath id="clip0_1_115">
<rect width="14" height="14" fill="white" transform="translate(0 8)"/>
</clipPath>
</defs>
</svg>
